<svg xmlns="http://www.w3.org/2000/svg" xmlns:xlink="http://www.w3.org/1999/xlink" width="6" height="51" viewBox="0 0 6 51">
  <defs>
    <rect id="group-6-copy-2-a" width="6" height="51"/>
  </defs>
  <g fill="none" fill-rule="evenodd" opacity=".538" style="mix-blend-mode:multiply">
    <mask id="group-6-copy-2-b" fill="#fff">
      <use xlink:href="#group-6-copy-2-a"/>
    </mask>
    <g stroke-linecap="round" mask="url(#group-6-copy-2-b)">
      <path stroke="#000" stroke-width=".5" d="M0,2.00036895 C2.47098375,1.00048642 4.94196089,0.000601908211 7.75887673,0.000601908211 M15.5106214,2.00040293 C13.0396407,1.00052044 10.5686685,0.000635923125 7.7517477,0.000635923125 M15.5091618,1.999919 C17.9801405,2.99980359 20.4511117,3.99968811 23.2680311,3.99968811 M31.0197732,1.99988499 C28.5487947,2.99976954 26.0778146,3.99965405 23.2609025,3.99965405 M31.0192658,2.00005698 C33.4902443,1.00017446 35.9612244,0.000289941823 38.7781381,0.000289941823 M46.5298787,2.000091 C44.0589002,1.00020847 41.5879201,0.000323956737 38.771008,0.000323956737 M46.5295606,1.99994099 C49.0005391,2.99982569 51.4715112,3.9997102 54.2884312,3.9997102 M62.0401734,1.99990701 C59.5691949,2.99979164 57.0982148,3.99967615 54.2813011,3.99967615 M62.0396724,2.00007897 C64.5106525,1.00019648 66.9816246,0.000311966389 69.7985431,0.000311966389 M77.5502741,2.00011298 C75.0793051,1.00023046 72.6083266,0.000345945078 69.7914129,0.000345945078 M77.5488044,1.99962902 C80.0197814,2.99951343 82.4907646,3.99939795 85.3076735,3.99939795 M93.0594173,1.99959505 C90.5884356,2.99947938 88.1174714,3.9993639 85.3005498,3.9993639 M93.0589274,1.999767 C95.5299027,0.999884516 98.0008908,0 100.81779,0 M108.569535,1.99980102 C106.098563,0.999918495 103.627575,3.39786893e-05 100.810676,3.39786893e-05 M108.568654,2.00023097 C111.039626,3.00011548 113.510605,4 116.327509,4 M124.079253,2.00019695 C121.608281,3.00008143 119.137299,3.99996595 116.320385,3.99996595 M124.078742,2.00036895 C126.549733,1.00048642 129.020701,0.000601908211 131.83761,0.000601908211 M139.589365,2.00040293 C137.118383,1.00052044 134.647406,0.000635923125 131.830491,0.000635923125 M139.587924,1.999919 C142.058901,2.99980359 144.529882,3.99968811 147.346791,3.99968811 M155.098536,1.99988499 C152.627564,2.99976954 150.156583,3.99965405 147.339663,3.99965405 M155.098024,2.00005698 C157.569006,1.00017446 160.039985,0.000289941823 162.856898,0.000289941823 M170.608644,2.000091 C168.137651,1.00020847 165.66669,0.000323956737 162.849774,0.000323956737 M170.608325,1.99994099 C173.079286,2.99982569 175.550279,3.9997102 178.367187,3.9997102 M186.118938,1.99990701 C183.647945,2.99979164 181.176968,3.99967615 178.360061,3.99967615 M186.118445,2.00007897 C188.589422,1.00019648 191.060399,0.000311966389 193.877322,0.000311966389 M201.629058,2.00011298 C199.158081,1.00023046 196.687104,0.000345945078 193.870197,0.000345945078 M201.627595,1.99962902 C204.098556,2.99951343 206.569549,3.99939795 209.386456,3.99939795 M217.138208,1.99959505 C214.667231,2.99947938 212.196254,3.9993639 209.379331,3.9993639 M217.137715,1.999767 C219.608707,0.999884516 222.079668,0 224.896592,0 M232.648343,1.99980102 C230.17735,0.999918495 227.706374,3.39786893e-05 224.889466,3.39786893e-05 M232.652192,2.00023097 C235.123169,3.00011548 237.594146,4 240.411069,4 M248.162805,2.00019695 C245.691828,3.00008143 243.220851,3.99996595 240.403928,3.99996595 M248.162296,2.00036895 C250.633273,1.00048642 253.104266,0.000601908211 255.921173,0.000601908211 M263.672925,2.00040293 C261.201932,1.00052044 258.730955,0.000635923125 255.914032,0.000635923125 M263.671462,1.999919 C266.142454,2.99980359 268.613431,3.99968811 271.430354,3.99968811 M279.18209,1.99988499 C276.711113,2.99976954 274.240136,3.99965405 271.423213,3.99965405 M279.181581,2.00005698 C281.652558,1.00017446 284.123535,0.000289941823 286.940442,0.000289941823 M294.692194,2.000091 C292.221217,1.00020847 289.750224,0.000323956737 286.933317,0.000323956737 M294.691876,1.99994099 C297.162853,2.99982569 299.63383,3.9997102 302.450737,3.9997102 M310.202489,1.99990701 C307.731496,2.99979164 305.260519,3.99967615 302.443628,3.99967615 M310.201996,2.00007897 C312.672973,1.00019648 315.14395,0.000311966389 317.960873,0.000311966389 M325.712625,2.00011298 C323.241632,1.00023046 320.770655,0.000345945078 317.953747,0.000345945078 M325.711145,1.99962902 C328.182122,2.99951343 330.653083,3.99939795 333.469991,3.99939795 M341.221742,1.99959505 C338.750781,2.99947938 336.279804,3.9993639 333.462881,3.9993639 M341.221249,1.999767 C343.692242,0.999884516 346.163235,0 348.980126,0 M356.731878,1.99980102 C354.260885,0.999918495 351.789908,3.39786893e-05 348.973001,3.39786893e-05 M356.731019,2.00023097 C359.201964,3.00011548 361.672957,4 364.489864,4 M372.241616,2.00019695 C369.770639,3.00008143 367.299662,3.99996595 364.482771,3.99996595 M372.241107,2.00036895 C374.712068,1.00048642 377.183093,0.000601908211 380,0.000601908211" transform="rotate(-90 96.234 95.266)"/>
    </g>
  </g>
</svg>