<?xml version="1.0" encoding="utf-8"?>

<!DOCTYPE svg PUBLIC "-//W3C//DTD SVG 1.1//EN" "http://www.w3.org/Graphics/SVG/1.1/DTD/svg11.dtd">
<!-- Uploaded to: SVG Repo, www.svgrepo.com, Generator: SVG Repo Mixer Tools -->
<svg height="800px" width="800px" version="1.1" id="_x32_" xmlns="http://www.w3.org/2000/svg" xmlns:xlink="http://www.w3.org/1999/xlink" 
	 viewBox="0 0 512 512"  xml:space="preserve">
<style type="text/css">
	.st0{fill:#000000;}
</style>
<g>
	<path class="st0" d="M346.483,226.653c-58.176-75.765-90.498-181.813-90.498-181.813s-32.318,106.048-90.505,181.813
		c0,0,26.66,16.09,41.21,7.569c0,0-14.55,65.341-79.995,151.514c58.176,18.923,101.81-12.328,101.81-12.328v93.75h21.025h12.916
		h21.021v-93.75c0,0,43.642,31.25,101.817,12.328c-65.457-86.174-79.995-151.514-79.995-151.514
		C319.826,242.743,346.483,226.653,346.483,226.653z"/>
	<path class="st0" d="M160.886,307.087c-19.185-35.761-24.363-59.015-24.363-59.015c8.768,5.141,23.33-1.454,29.058-4.376
		c1.522-0.84,2.417-1.379,2.417-1.379c-5.313-6.985-10.353-14.276-15.186-21.718c-34.855-54.482-53.972-117.26-53.972-117.26
		s-24.711,81.041-69.23,138.977c0,0,20.361,12.283,31.542,5.756c0,0-11.181,49.956-61.151,115.88
		c44.451,14.426,77.788-9.443,77.788-9.443v71.674h42.034v-71.674c0,0,3.035,2.151,8.415,4.759
		C141.633,340.391,152.332,322.817,160.886,307.087z"/>
	<path class="st0" d="M450.849,248.071c11.121,6.527,31.474-5.756,31.474-5.756c-44.454-57.936-69.155-138.977-69.155-138.977
		s-19.125,62.778-54.05,117.26c-4.766,7.441-9.803,14.733-15.123,21.718c0,0,0.906,0.54,2.428,1.379
		c5.725,2.922,20.29,9.517,29.058,4.376c0,0-5.178,23.328-24.442,59.09c8.566,15.655,19.331,33.303,32.723,52.106
		c5.381-2.608,8.423-4.759,8.423-4.759v71.674h41.967v-71.674c0,0,33.394,23.869,77.848,9.443
		C461.97,298.027,450.849,248.071,450.849,248.071z"/>
</g>
</svg>