<svg xmlns="http://www.w3.org/2000/svg" width="26px" height="26px" viewBox="0 0 26 26">
    <g class="no-fill" fill="none" stroke="none" stroke-width="1" fill-rule="evenodd">
        <g class="no-fill" fill="none">
            <rect fill="none" x="0" y="0" width="26" height="26"/>
            <g class="no-fill" fill="none" transform="translate(2.166667, 1.444444)" fill-rule="nonzero">
                <path fill="#000" d="M10.8716111,0.076245 L0.399388889,5.31235611 C-0.132925,5.57850944 -0.132925,6.33812833 0.399388889,6.60433944 L10.8716111,11.8404506 C11.0749383,11.9421106 11.3142611,11.9421106 11.5175883,11.8404506 L21.9898106,6.60433944 C22.5221244,6.33818611 22.5221244,5.57856722 21.9898106,5.31235611 L11.5175883,0.076245 C11.3142611,-0.025415 11.0749383,-0.025415 10.8716111,0.076245 Z M11.1945961,1.52971722 L20.0519294,5.95838389 L11.1945961,10.3870506 L2.33726278,5.95838389 L11.1945961,1.52971722 Z"/>
                <path fill="#000" d="M1.0452,15.7848889 C0.688436667,15.6065072 0.254583333,15.7511142 0.0762666667,16.1078739 C-0.10205,16.4646336 0.0424919444,16.8984906 0.399251667,17.0768072 L10.8714739,22.3129183 C11.0748011,22.4145783 11.3141239,22.4145783 11.5174511,22.3129183 L21.9896733,17.0768072 C22.3464367,16.8984256 22.49104,16.4646083 22.3126583,16.1078739 C22.1342767,15.7511106 21.7004594,15.6065072 21.343725,15.7848889 L11.1943361,20.8595111 L1.04494722,15.7848889 L1.0452,15.7848889 Z"/>
                <path fill="#000" d="M11.1944444,15.6231111 L1.04505556,10.5484889 C0.688292222,10.3701072 0.254438889,10.5147142 0.0761222222,10.8714739 C-0.102194444,11.2282336 0.0423475,11.6620906 0.399107222,11.8404072 L10.8713294,17.0765183 C11.0746567,17.1781783 11.3139794,17.1781783 11.5173067,17.0765183 L21.9895289,11.8404072 C22.3462922,11.6620256 22.4908956,11.2282083 22.3125139,10.8714739 C22.1341322,10.5147106 21.700315,10.3701072 21.3435806,10.5484889 L11.1941917,15.6231111 L11.1944444,15.6231111 Z"/>
            </g>
        </g>
    </g>
</svg>