<svg width="8px" height="8px" viewBox="0 0 8 8" version="1.1" xmlns="http://www.w3.org/2000/svg" xmlns:xlink="http://www.w3.org/1999/xlink">
    <title>divider@3x</title>
    <g id="Symbols" stroke="none" stroke-width="1" fill="none" fill-rule="evenodd">
        <g id="Header/Solid" transform="translate(-985.000000, -36.000000)" fill="#5C9C0A" fill-rule="nonzero">
            <g id="Primary-Nav" transform="translate(375.000000, 32.000000)">
                <path d="M616.954714,11.8247788 C617.188988,12.0583945 617.569053,12.0584196 617.803302,11.8247788 C618.037551,11.5911381 618.037551,11.2121007 617.803302,10.978485 L617.803302,10.978485 L614.847996,8.01122067 L617.824304,5.04495391 C618.058553,4.81131313 618.058578,4.43227579 617.824304,4.19866012 C617.59003,3.96504446 617.209965,3.96504446 616.975716,4.19866012 L616.975716,4.19866012 L614.000408,7.1659245 L611.024275,4.17522117 C610.790001,3.9416055 610.409936,3.94158039 610.175687,4.17522117 C609.941438,4.40886195 609.941438,4.78789928 610.175687,5.02151495 L610.175687,5.02151495 L613.15282,8.01122067 L610.176512,10.9774874 C609.942263,11.2111282 609.942238,11.5901656 610.176512,11.8237812 C610.410786,12.0573969 610.790851,12.0573969 611.0251,11.8237812 L611.0251,11.8237812 L614.000408,8.85651684 L616.954714,11.8247788 Z" id="divider"/>
            </g>
        </g>
    </g>
</svg>