<svg width="1440" height="272" viewBox="0 0 1440 272" fill="none" xmlns="http://www.w3.org/2000/svg">
  <g opacity="0.5">
    <g clip-path="#clip0">
      <path d="M1495 42.6963C1482.22 29.3566 1476.05 35.8026 1463.67 32.6692C1453.7 30.14 1443.54 25.0817 1435.74 24.5893C1433.91 24.4774 1426.89 31.9753 1423.62 32.7811C1420.67 33.5197 1415.28 22.933 1412.85 23.0225C1396.44 23.5597 1384.12 41.4429 1366.68 39.6523C1352.86 38.2199 1348.48 30.0281 1336.23 33.3182C1327.96 35.5341 1322.46 47.4189 1312.64 48.2918C1300.47 49.3661 1291.94 38.9137 1279.25 40.7938C1264.42 42.9872 1264.42 42.9872 1264.42 42.9872C1248.28 55.4316 1229.83 63.9367 1223.44 61.8776C1217.02 59.8185 1199.1 54.8721 1198.3 51.8057C1197.49 48.717 1193.38 42.9649 1188.95 45.8074C1184.51 48.6723 1168.48 53.3501 1166.05 56.5955C1163.62 59.8409 1146.2 65.4587 1137.04 72.33C1127.87 79.1789 1090.13 59.6842 1069.79 64.6754C1069.79 64.6754 1069.79 64.6754 1044.32 69.7113C1031.9 72.1733 1016.22 76.0454 1006.12 82.8047C997.703 88.445 992.428 99.6584 983.468 104.739C974.003 110.111 972.208 107.268 962.687 107.805C951.09 108.454 939.118 111.633 926.792 112.461C913.342 113.356 911.154 105.164 900.155 102.881C893.365 101.471 883.825 104.784 874.361 104.94C872.584 104.963 852.868 102.926 851.465 102.367C846.939 100.531 838.035 88.5345 834.275 87.8183C822.921 85.6696 822.304 94.3762 811.698 98.5393C796.921 104.336 800.793 96.9501 786.072 93.4138C782.799 92.6304 782.799 92.6304 782.799 92.6304C779.993 95.5625 775.223 97.2411 772.193 96.3682C769.181 95.4729 756.985 95.07 743.349 95.4953C743.349 95.4953 743.349 95.4953 736.428 92.3394C717.068 83.521 721.782 67.5402 698.55 75.3515C681.323 81.1485 673.504 91.5337 654.425 92.899C635.383 94.2643 635.383 94.2643 635.383 94.2643C618.417 99.9045 604.089 103.553 603.546 102.367C603.004 101.18 588.507 111.431 572.645 127.569C572.645 127.569 572.645 127.569 553.846 130.59C538.901 132.985 540.229 127.255 525.676 135.492C515.445 141.266 515.445 141.266 515.445 141.266C505.381 149.324 485.778 159.732 471.899 164.365C458.02 168.998 428.802 181.822 421.507 180.524C421.507 180.524 421.507 180.524 411.762 183.837C397.153 188.806 399.809 190.663 384.564 182.651C373.36 176.764 372.836 172.825 358.826 170.676C346.948 168.841 346.948 168.841 346.948 168.841C337.146 161.791 320.854 159.866 310.753 164.588C300.652 169.311 279.759 145.653 273.249 145.228C266.74 144.803 246.295 130.12 244.088 124.032C241.881 117.922 217.508 120.608 200.374 118.795C200.374 118.795 200.374 118.795 186.887 110.424C169.024 99.3226 159.989 92.2947 138.684 88.4674C118.071 84.7743 103.499 83.23 86.3279 70.9647C73.6271 61.9 78.7149 62.7729 65.3219 62.8848C58.532 62.9519 51.7794 67.1821 43.9419 67.7641C31.3158 68.7041 33.972 72.0614 21.4582 65.3244C15.4912 62.1014 7.33572 50.7538 2.99611 49.5452C-3.23274 47.8217 -3.23274 47.8217 -3.23274 47.8217C-11.6501 50.6643 -22.4243 49.948 -27.1941 46.2102C-27.1941 46.2102 -27.1941 46.2102 -29.0085 45.785C-32.1697 45.0464 -36.3597 51.761 -41.5411 50.4628C-50.3699 48.247 -57.5901 40.5476 -66.6809 37.7499C-74.6867 35.2878 -85.7041 35.7355 -93.9344 35.2431C-112.06 34.0792 -126.033 35.0193 -142.194 27.6332L-157.906 343.062C-159.646 377.888 -137.2 406.224 -108.038 406L1439.88 394.272C1469.04 394.048 1493.07 365.31 1493.28 330.416L1495 42.6963Z" fill="#D3DED7"/>
    </g>
    <g clip-path="#clip1">
      <path d="M1568.07 138.635C1556.87 122.714 1540.63 132.994 1523.78 129.074C1502.13 124.031 1491.3 112.09 1465.01 115.068C1449.42 116.849 1434.91 124.585 1419.14 119.811C1412.57 117.821 1409.51 109.831 1401.73 108.365C1392.95 106.719 1378.47 111.342 1369.24 112.165C1345.89 114.245 1332.81 115.457 1311.8 122.265C1292.26 128.61 1272.67 126.081 1252.6 126.829C1233.6 127.532 1220.49 134.445 1202.39 135.268C1180.18 136.271 1169.2 133.622 1149.23 141.972C1138.22 146.58 1138.22 146.58 1138.22 146.58C1119.05 146.027 1099.95 143.812 1095.79 141.657C1091.63 139.503 1070.48 120.769 1051.73 108.829C1051.73 108.829 1051.73 108.829 1035.88 108.275C1029.08 108.035 999.569 125.198 994.214 128.52C981.06 136.675 975.177 148.226 959.209 155.798C943.378 163.309 927.351 165.269 910.972 170.431C904.874 172.347 895.551 176.895 889.179 177.27C876.514 178.018 874.13 171.329 865.08 169.983C843.62 166.751 830.662 180.202 810.198 180.546C772.476 181.16 744.996 158.042 714.311 148.316C697.228 142.899 682.804 142.256 666.074 133.592C651.689 126.156 642.092 121.353 625.713 117.193C593.601 109.053 560.179 104.968 529.923 94.9877C510.906 88.7182 484.638 78.7678 464.663 74.4883C447.424 70.8074 427.977 77.2266 411.559 74.9971C394.145 72.6329 382.887 63.8945 363.361 63.1463C345.419 62.458 327.672 62.8321 312.388 69.5206C301.247 74.4135 301.247 74.4135 301.247 74.4135C274.979 78.5433 249.121 84.753 243.805 88.1945C243.805 88.1945 243.805 88.1945 236.417 90.0948C227.621 92.3692 216.852 90.5437 207.842 93.3717C189.411 99.1624 180.303 109.412 160.152 114.709C139.669 120.096 126.769 125.467 104.801 126.904C86.4677 128.101 68.799 127.547 50.1532 126.859C30.3541 126.126 16.5945 122.415 -0.233765 122.325C-10.2017 122.28 -13.4657 125.333 -23.805 123.163C-34.1638 120.979 -43.604 112.524 -54.9987 111.342C-82.264 108.529 -119.751 134.58 -138.299 148.69C-145.199 153.942 -148.189 160.78 -157.962 163.788L-168.731 264.055C-171.233 287.308 -148.345 306.131 -117.875 305.892L1499.53 293.338C1530 293.099 1556.56 273.856 1558.54 250.589L1568.07 138.635Z" fill="#C1D0C5"/>
    </g>
  </g>
  <defs>
    <clipPath id="clip0">
      <rect width="1653" height="383" fill="white" transform="translate(-158 23)"/>
    </clipPath>
    <clipPath id="clip1">
      <rect width="1737" height="357" fill="white" transform="translate(-178)"/>
    </clipPath>
  </defs>
</svg>