<svg xmlns="http://www.w3.org/2000/svg" version="1.1" xmlns:xlink="http://www.w3.org/1999/xlink" xmlns:svgjs="http://svgjs.dev/svgjs" width="4000" height="560" preserveAspectRatio="none" viewBox="0 0 4000 560"><g mask="url(&quot;#SvgjsMask1034&quot;)" fill="none"><path d="M -604.0569303535688,291 C -537.26,267.8 -403.66,137.2 -270.05693035356876,175 C -136.46,212.8 -69.66,490 63.94306964643124,480 C 197.54,470 264.34,149.2 397.94306964643124,125 C 531.54,100.8 598.34,350.8 731.9430696464312,359 C 865.54,367.2 932.34,171.8 1065.9430696464312,166 C 1199.54,160.2 1266.34,323.2 1399.9430696464312,330 C 1533.54,336.8 1600.34,175.2 1733.9430696464312,200 C 1867.54,224.8 1934.34,471.2 2067.9430696464315,454 C 2201.54,436.8 2268.34,139.4 2401.9430696464315,114 C 2535.54,88.6 2602.34,322 2735.9430696464315,327 C 2869.54,332 2936.34,120.8 3069.9430696464315,139 C 3203.54,157.2 3270.34,428.8 3403.9430696464315,418 C 3537.54,407.2 3618.73,76.4 3737.9430696464315,85 C 3857.15,93.6 3947.59,385.8 4000,461" stroke="rgba(255, 255, 255, 0.58)" stroke-width="2"></path><path d="M -83.35204299367939,161 C -16.55,186.2 117.05,288.2 250.6479570063206,287 C 384.25,285.8 451.05,146.4 584.6479570063207,155 C 718.25,163.6 785.05,331.6 918.6479570063207,330 C 1052.25,328.4 1119.05,115.6 1252.6479570063207,147 C 1386.25,178.4 1453.05,499.6 1586.6479570063207,487 C 1720.25,474.4 1787.05,97 1920.6479570063207,84 C 2054.25,71 2121.05,410.4 2254.6479570063207,422 C 2388.25,433.6 2455.05,149 2588.6479570063207,142 C 2722.25,135 2789.05,394 2922.6479570063207,387 C 3056.25,380 3123.05,101.8 3256.6479570063207,107 C 3390.25,112.2 3457.05,392.2 3590.6479570063207,413 C 3724.25,433.8 3791.05,198.2 3924.6479570063207,211 C 4058.25,223.8 4243.58,464.8 4258.64795700632,477 C 4273.72,489.2 4051.73,313 4000,272" stroke="rgba(255, 255, 255, 0.58)" stroke-width="2"></path><path d="M -613.8369640682943,228 C -547.04,280.6 -413.44,482.4 -279.83696406829426,491 C -146.24,499.6 -79.44,280 54.163035931705735,271 C 187.76,262 254.56,451 388.16303593170574,446 C 521.76,441 588.56,245.4 722.1630359317057,246 C 855.76,246.6 922.56,486.4 1056.1630359317057,449 C 1189.76,411.6 1256.56,71.6 1390.1630359317057,59 C 1523.76,46.4 1590.56,346.2 1724.1630359317057,386 C 1857.76,425.8 1924.56,249.2 2058.163035931706,258 C 2191.76,266.8 2258.56,459.8 2392.163035931706,430 C 2525.76,400.2 2592.56,109.8 2726.163035931706,109 C 2859.76,108.2 2926.56,419.6 3060.163035931706,426 C 3193.76,432.4 3260.56,148 3394.163035931706,141 C 3527.76,134 3607,399 3728.163035931706,391 C 3849.33,383 3945.63,159 4000,101" stroke="rgba(255, 255, 255, 0.58)" stroke-width="2"></path><path d="M -473.97962220635145,221 C -407.18,263.2 -273.58,423 -139.97962220635148,432 C -6.38,441 60.42,276.4 194.02037779364852,266 C 327.62,255.6 394.42,390 528.0203777936485,380 C 661.62,370 728.42,198.2 862.0203777936485,216 C 995.62,233.8 1062.42,478.8 1196.0203777936485,469 C 1329.62,459.2 1396.42,191.4 1530.0203777936485,167 C 1663.62,142.6 1730.42,335.8 1864.0203777936485,347 C 1997.62,358.2 2064.42,227.6 2198.0203777936485,223 C 2331.62,218.4 2398.42,324.4 2532.0203777936485,324 C 2665.62,323.6 2732.42,228.2 2866.0203777936485,221 C 2999.62,213.8 3066.42,288.2 3200.0203777936485,288 C 3333.62,287.8 3400.42,204.4 3534.0203777936485,220 C 3667.62,235.6 3774.82,363.4 3868.0203777936485,366 C 3961.22,368.6 3973.6,259.6 4000,233" stroke="rgba(255, 255, 255, 0.58)" stroke-width="2"></path><path d="M -573.7614364653969,373 C -506.96,346.2 -373.36,254.4 -239.76143646539683,239 C -106.16,223.6 -39.36,303.6 94.23856353460317,296 C 227.84,288.4 294.64,196.2 428.23856353460314,201 C 561.84,205.8 628.64,314.2 762.2385635346031,320 C 895.84,325.8 962.64,213 1096.2385635346031,230 C 1229.84,247 1296.64,409.2 1430.2385635346031,405 C 1563.84,400.8 1630.64,202.8 1764.2385635346031,209 C 1897.84,215.2 1964.64,460.8 2098.238563534603,436 C 2231.84,411.2 2298.64,94.8 2432.238563534603,85 C 2565.84,75.2 2632.64,353.6 2766.238563534603,387 C 2899.84,420.4 2966.64,236 3100.238563534603,252 C 3233.84,268 3300.64,497.6 3434.238563534603,467 C 3567.84,436.4 3655.09,113.6 3768.238563534603,99 C 3881.39,84.4 3953.65,335 4000,394" stroke="rgba(255, 255, 255, 0.58)" stroke-width="2"></path></g><defs><mask id="SvgjsMask1034"><rect width="4000" height="560" fill="#ffffff"></rect></mask></defs></svg>