<svg width="154" height="9" viewBox="0 0 154 9" fill="none" xmlns="http://www.w3.org/2000/svg">
<path d="M13.3246 8.63374C13.9274 8.61535 13.5728 7.95347 13.6792 7.55635C14.3883 7.32469 14.0337 8.03805 14.2961 8.37266C14.7358 8.17042 15.0478 7.52693 15.3847 7.53796C15.413 7.64827 15.4804 7.68505 15.413 7.82845C15.8598 7.26218 16.8313 7.72549 17.3348 7.01949C17.373 7.06802 17.4008 7.12443 17.4163 7.18496C17.3252 6.88533 17.2809 6.57249 17.2851 6.25833C17.5546 6.23259 17.7674 5.80237 17.8879 6.25833C17.7248 6.25833 17.7177 6.43483 17.6468 6.57824L17.9198 6.36865C18.207 6.99375 17.544 6.61133 17.5653 7.082C18.1042 6.84667 18.7212 6.28407 19.1537 6.44219C19.2707 7.05994 18.1751 6.70326 18.7637 7.22909L18.1007 7.02317C18.6467 7.98289 17.7 6.97904 18.2106 8.00495C19.0757 8.14101 19.1537 7.63724 20.0189 7.7733C20.1962 7.40559 19.9338 7.26586 20.1111 6.90918C21.3024 6.22892 21.1393 8.43517 21.9974 7.56002C22.2137 7.13348 22.2668 6.34291 22.9228 6.729L22.7455 7.41294C23.5788 7.44236 23.1745 6.376 24.0681 6.8099C23.9227 7.09303 23.4227 7.07465 23.5539 7.15187C24.1425 7.68137 23.9333 6.73268 24.3694 6.71429L24.4723 7.35043C25.3516 7.2107 26.3089 6.71429 27.2875 6.5525C27.2415 6.74371 27.0784 6.94595 27.3159 7.12613C28.5427 6.75842 29.961 7.082 31.1701 7.40926L31.6062 6.85035C31.6385 6.86174 31.6676 6.88113 31.691 6.90685C31.7144 6.93256 31.7313 6.96382 31.7404 6.99789C31.7495 7.03196 31.7504 7.06782 31.7431 7.10235C31.7358 7.13688 31.7204 7.16902 31.6984 7.19599C32.1735 7.38352 31.6984 6.85402 31.9253 6.6334C32.1912 6.5856 32.2799 6.92756 32.1274 7.09671C32.9287 6.60766 34.4286 6.01932 35.3185 6.56353L35.1554 6.73268C35.8362 6.92389 35.8646 5.59646 36.5205 6.07448L36.4035 6.17376C37.875 6.35026 39.4741 5.80605 40.6158 6.57456C40.8037 5.79134 42.0731 6.87609 42.1334 5.78767C42.9843 6.29878 42.7539 6.50102 43.9381 6.82461C44.2537 6.86505 44.3884 6.13331 44.7714 6.00829L44.7997 6.57089L45.3068 5.96049L45.6082 6.62972L45.9627 6.4716C45.8778 6.44511 45.8031 6.39129 45.7496 6.31792C45.6961 6.24456 45.6664 6.15544 45.6649 6.06345C46.2251 5.79134 47.0619 6.43116 47.0832 6.70326L48.4163 6.18111C48.3915 6.41277 48.1681 6.49734 47.9944 6.64811C48.7035 6.04874 48.1398 7.24012 48.7851 6.68855C48.6929 6.56353 48.8241 6.35026 48.8347 6.23627C49.1893 6.57089 49.9197 6.55618 50.4693 6.39439L50.3736 6.78783C51.3735 6.86505 52.4726 6.54882 53.5931 6.53044C53.1853 6.35762 53.2633 5.67735 53.5931 5.60381L53.7384 6.1995C53.9441 5.83179 53.3839 5.98255 53.8164 5.51924C54.2348 5.57807 54.1143 6.19215 53.8767 6.39439L54.3802 6.17376C54.4157 6.35026 54.2986 6.44954 54.2738 6.67752C54.4724 6.30981 55.1638 7.25483 55.451 6.60398L55.4829 6.78048C56.6034 6.75842 57.1068 6.53779 58.0181 6.48631C58.0181 5.96784 58.3727 6.07448 58.6492 5.65161C59.3229 5.80237 60.0675 6.19582 60.883 6.13699C61.4468 5.87224 61.039 5.69942 61.2908 5.40157C61.3404 5.87224 62.1453 5.81341 61.734 6.15905C62.5731 6.1095 63.4008 5.93361 64.1911 5.63691C64.0564 5.44937 63.9039 5.3648 63.9784 5.20301C64.0371 5.19234 64.0974 5.19505 64.1551 5.21095C64.2127 5.22685 64.2663 5.25556 64.3122 5.29508C64.3581 5.33461 64.3951 5.38401 64.4207 5.43986C64.4463 5.49571 64.46 5.55667 64.4606 5.61852L64.4039 5.67C65.769 4.93458 67.595 6.98272 68.6835 5.98623L68.6197 6.03771L69.7508 5.51188C70.2755 5.5891 69.4423 5.87959 69.8323 6.15905C71.052 5.35745 71.7718 6.25098 72.7753 5.7178C73.573 7.09671 75.5515 5.5891 76.6117 6.45322L76.5479 6.12964C76.8209 5.80605 76.8812 6.30981 77.0833 6.38336C77.0514 6.12964 76.7854 6.09286 76.9521 5.91269C79.2603 5.4935 81.7246 6.37232 84.0931 6.64811C84.9583 6.73268 84.5789 4.95297 85.6745 5.72883L85.366 6.33923C87.1105 5.60381 88.9365 6.33923 90.6491 5.74722C90.5498 5.88695 90.5463 6.06712 90.3761 6.06712C90.7307 6.50838 91.7128 6.09286 91.7199 5.73251C91.9894 5.77296 91.7837 6.05977 91.9468 6.24363C92.3014 6.5047 92.8581 5.68103 93.0495 6.12228C93.0814 6.19215 92.9467 6.26569 92.8793 6.29878C93.1169 6.08551 93.982 6.35762 93.7551 5.8465C94.3969 6.09286 94.9855 5.62587 95.4961 5.9274C95.8506 5.36112 96.5952 6.20685 96.7051 5.40157C96.6555 6.23259 97.8291 6.07448 98.2369 5.69206C98.0986 5.9421 98.5914 5.95681 98.4283 6.30246C98.8893 6.30246 99.3148 6.14434 99.2403 5.7178C100.084 6.72165 100.964 4.93458 101.432 6.21421C102.707 5.81033 104.011 5.50914 105.332 5.31332C105.279 6.14067 103.96 5.38319 104.006 6.25098C105.183 5.92372 105.871 5.21772 107.034 5.43099C107.335 5.54866 106.856 5.7987 106.754 5.93107C107.931 5.60013 109.023 6.04506 110.072 5.60749C110.072 5.68471 109.955 5.76928 109.849 5.83179C110.055 5.80605 110.324 5.96049 110.306 5.58175L110.104 5.68103C109.785 5.12947 110.941 4.55216 110.98 4.26535C110.626 5.33906 112.008 4.55584 111.434 5.90901C111.524 5.86622 111.6 5.79559 111.65 5.70675C111.7 5.6179 111.722 5.51518 111.714 5.4126C111.916 5.48982 111.976 5.64058 111.767 5.92372C112.508 5.72883 112.253 5.32435 112.923 5.34642C112.923 5.52659 112.781 5.59646 112.707 5.80973C113.061 5.44202 113.398 5.11108 113.958 5.27287C113.923 5.38319 113.987 5.52659 113.82 5.52292C114.788 5.48614 115.49 4.60364 116.547 4.96767C116.217 5.75457 116.901 5.2361 116.948 5.92372L117.522 5.72883L117.299 5.39054C117.802 5.41628 118.256 4.92723 118.681 5.16256L118.302 5.43467L119.245 5.32803L118.717 5.05592C119.234 4.71395 118.681 4.18445 119.344 4.39405C119.21 4.46024 119.848 4.41611 120.1 4.82427C120.355 4.611 120.614 4.38669 120.983 4.56687C121.071 4.79117 120.887 5.32435 120.947 5.47144C121.202 4.90516 122.124 5.34274 122.447 4.73602C122.355 4.91108 122.324 5.11355 122.358 5.30964L122.575 4.85001C122.805 5.00445 122.837 5.07799 122.791 5.3648C123.5 5.46776 122.592 4.48965 123.411 4.8831C123.344 4.91987 123.376 4.98974 123.238 5.0596C124.064 5.27287 124.854 4.80221 125.613 5.0596C125.822 5.75457 124.939 5.21036 125.184 5.79502C126.29 5.69574 127.489 5.02651 128.553 5.22507L128.354 5.14417C128.531 4.17342 129.138 5.65161 129.691 5.21036C129.556 5.27655 129.499 5.74354 129.538 5.63691C130.247 5.81708 131.042 5.4457 132.159 5.17359L132.013 5.41996C132.435 5.65897 133.144 5.58543 133.605 5.71412C133.751 5.47144 134.016 5.51924 133.864 5.15153C135.254 6.62237 136.626 4.46759 137.86 5.71045C137.708 5.71045 137.505 5.91636 137.612 5.92004L138.704 5.73251C138.633 5.30597 138.569 5.47144 138.349 5.12947C138.429 5.00395 138.536 4.90046 138.663 4.82803C138.79 4.75561 138.932 4.71644 139.076 4.71395C138.58 4.97503 139.058 5.39422 139.261 5.64058C139.229 5.50821 139.307 5.36848 139.292 5.2361C139.835 6.01197 139.42 4.38302 140.175 4.92355L140.126 5.14417C140.42 5.04122 140.697 4.77647 141.005 4.8353C141.118 5.33171 140.689 5.05225 140.65 5.45305C141.09 5.45305 141.551 4.55952 141.93 5.06328C141.739 5.19198 141.47 5.18462 141.278 5.31332C141.689 5.90533 141.746 5.76193 142.062 5.86488H142.033L142.764 6.15538L142.583 5.99358C143.179 4.73602 143.707 5.80237 144.476 4.99341C143.728 5.75825 144.342 5.44937 144.264 6.00094C144.448 6.16273 144.728 6.35026 144.639 6.50102C144.994 6.06713 145.21 6.86873 145.728 6.23995C145.728 6.42013 146.1 6.27304 146.004 6.72165C146.462 6.59663 145.909 6.40542 145.955 6.18111C146.682 5.59646 147.568 6.99743 148.611 6.20318C149.493 5.89798 149.674 5.30229 150.497 5.03754C150.756 5.33906 150.245 5.68103 150.245 5.68103C150.416 5.80514 150.618 5.87711 150.826 5.8888C151.035 5.9005 151.243 5.85146 151.426 5.74722C151.337 5.89798 151.426 6.03403 151.536 6.23995C151.869 6.21053 151.784 5.60013 152.209 5.87224C152.127 6.12522 152.008 6.3634 151.855 6.57824C152.252 6.43116 152.653 6.11493 153.064 5.97152C153.16 6.28775 152.802 6.43483 152.649 6.62972C153.11 6.51205 153.837 6.40174 154 5.91636L153.716 5.72516C153.883 5.72516 153.784 6.15538 153.656 6.23995C153.252 6.60766 153.103 6.04139 153.089 5.87224L153.383 5.76928C153.135 4.7066 152.217 5.88327 151.639 5.79502L151.915 5.0596L151.291 5.66264C151.174 5.4604 151.107 5.03018 151.397 4.92723C150.997 4.5301 151.018 5.18095 150.688 4.74337C150.653 4.67718 150.671 4.64041 150.71 4.611L150.295 4.82059C150.38 4.66615 150.249 4.28006 150.493 4.4014C149.784 3.92706 149.291 4.91987 149.043 4.32786L149.107 4.28374C148.082 4.49333 148.983 4.83898 148.199 5.46408L147.742 4.05576L147.621 4.611C147.518 4.58526 147.313 4.53378 147.359 4.31315C146.955 4.68086 147.416 4.55952 147.175 4.91252C146.692 4.37566 145.781 5.08902 145.703 4.1771C145.505 4.59629 146.171 4.54481 145.622 4.80221C145.505 3.83513 144.994 4.94193 144.558 4.4823C144.721 3.99324 145.146 4.2727 144.703 3.80939C144.391 4.63674 143.813 3.59244 143.42 3.73585C143.377 4.40508 142.565 3.98221 141.909 4.18078C141.959 3.95647 140.697 3.76527 140.101 3.50051L140.122 3.38652C139.98 4.05576 139.363 3.90499 138.902 4.02634C138.892 3.87989 138.921 3.73327 138.987 3.60323C139.053 3.47319 139.152 3.36497 139.275 3.29092H138.846C138.794 3.39192 138.719 3.47822 138.627 3.54231C138.536 3.6064 138.431 3.64633 138.321 3.65863L138.445 3.15854C137.878 3.15854 137.282 3.70643 136.559 3.34608C136.506 3.81307 137.098 4.67351 136.314 4.964C136.293 4.7066 136.279 4.2727 136.488 4.17342C136.42 4.20652 136.243 4.37566 136.112 4.26535L136.435 3.84616C136.108 3.6476 136.25 4.21387 135.984 4.15136C135.984 3.78365 135.796 3.88293 135.843 3.59612C135.913 3.5667 136.073 3.75423 136.179 3.59612C136.019 3.56208 135.868 3.49296 135.736 3.39339C135.604 3.29382 135.494 3.1661 135.413 3.01882C135.431 3.22473 135.396 3.50787 135.176 3.54464C134.605 3.54464 134.995 3.10339 134.669 2.90483C134.524 3.15487 134.169 2.87909 134.141 3.4233C133.974 3.4233 133.953 3.16222 133.892 3.01146C133.591 3.24312 132.513 3.0372 132.829 3.62186L132.903 3.66231C132.903 3.66231 132.871 3.66231 132.853 3.68805C131.875 4.19548 130.861 3.32034 129.896 3.51522V3.36814C129.322 3.55567 128.623 3.44904 128.205 3.8241C128.096 3.7876 128.004 3.71077 127.947 3.60833C127.889 3.50588 127.87 3.38501 127.893 3.26886C127.45 3.3902 127.397 3.58876 126.773 3.26886C127.223 2.96366 126.631 2.98204 127.23 3.04823C126.666 2.87541 126.546 2.58124 125.922 3.04823C126.141 2.5886 125.51 2.45254 125.237 2.58492L125.627 2.92689C125.348 2.96809 125.063 2.95688 124.787 2.89379L124.95 2.2834C123.805 1.51121 122.823 3.49684 121.968 2.23192C121.649 2.65111 122.592 2.54815 122.323 3.04088C121.791 2.94527 121.259 2.05174 121.085 2.04806C120.358 1.68035 120.376 2.92321 119.621 2.67317C119.666 2.76495 119.691 2.8657 119.694 2.96845C119.697 3.07121 119.679 3.17351 119.641 3.26829C119.602 3.36306 119.545 3.44804 119.471 3.51734C119.398 3.58664 119.311 3.63862 119.217 3.66966C118.685 3.57406 118.579 2.73568 118.919 2.56653C119.05 2.56653 119.11 2.62169 119.103 2.69523C119.277 2.62169 119.507 2.53344 119.298 2.29075L119.224 2.5077C118.965 2.27972 118.228 2.2834 118.408 1.9304C118.001 2.12896 118.228 2.29811 118.525 2.40474C117.845 2.07013 117.462 2.36429 116.752 2.13999C116.862 2.26501 116.962 2.5077 116.852 2.5077C115.82 2.21721 116.387 2.91218 115.682 2.99675C115.292 2.65478 115.841 2.2025 115.129 2.47093C114.7 2.23559 115.047 1.88995 115.224 1.71345C114.572 2.12528 114.026 1.4156 113.657 1.34574L114.012 1.17659C113.842 1.256 113.655 1.2877 113.469 1.26852L113.657 1.70977C113.459 1.62887 113.303 1.6252 113.303 1.44134C113.093 1.72448 113.448 2.17676 113.033 2.54447C112.774 2.31649 112.221 2.7651 112.14 2.17676C112.973 2.38636 112.058 1.5921 112.767 1.51121C112.683 1.55676 112.591 1.58207 112.496 1.58525C112.402 1.58844 112.308 1.56941 112.221 1.52959C112.193 1.46341 112.249 1.40825 112.306 1.37516C111.516 0.845654 111.927 2.026 111.101 1.99658C111.211 1.673 110.916 1.37516 110.782 1.44134C111.115 1.44134 110.934 1.98923 110.622 2.23192C110.094 1.97084 110.04 2.4121 109.764 2.37532L110.079 2.50035C109.966 2.82761 109.704 2.7798 109.331 2.86805C109.303 2.61434 109.668 2.69891 109.541 2.58492C109.122 3.15119 108.619 1.97452 108.041 2.34958C107.778 2.12528 108.023 1.73551 107.793 1.58107C107.144 1.99658 107.101 1.12879 106.424 1.46708C106.612 1.90833 106.647 1.8017 106.165 2.22456L107.278 1.92672L106.569 2.55918C106.906 2.55918 107.278 2.29075 107.48 2.36797C107.126 2.73568 107.172 2.61066 107.328 2.97837C106.878 2.31649 106.413 3.34608 105.91 2.90115L105.938 1.81641C105.147 1.32368 104.52 2.35694 103.485 2.0738L103.814 2.26501C103.672 2.69523 103.176 2.32017 102.839 2.48931C102.875 2.1216 102.665 1.99291 102.524 1.7539C102.541 2.02232 101.768 1.7208 101.666 2.44519L101.212 1.96349C100.375 1.75757 100.247 2.98572 99.4389 2.85335C99.6835 2.46357 99.3219 2.2025 99.8608 1.92304C99.5949 1.92304 99.3538 1.8495 99.3467 2.09954C99.1694 1.8973 98.5773 2.59595 98.3362 2.26501C98.2192 2.42313 98.1801 2.80187 97.8788 2.76877C97.8604 2.71023 97.8604 2.64714 97.8788 2.5886C97.8788 2.76877 97.4072 2.82761 97.666 3.23209C96.8505 2.09587 95.3613 3.30563 94.6451 2.3312C94.0449 2.45812 93.4372 2.5441 92.8261 2.5886C92.8581 2.48196 92.8262 2.40842 92.929 2.44519C92.195 2.1069 92.4751 3.48581 91.6419 3.10707C91.2164 2.51873 92.0851 2.79084 91.8192 2.56653C91.7093 1.37148 90.8158 2.72833 90.2555 2.026L90.3903 1.95614C89.9648 1.52959 89.3585 2.39003 88.6493 2.30546C88.6677 2.24692 88.6677 2.18382 88.6493 2.12528C88.1707 2.72833 87.2665 2.93424 86.5928 3.10339C86.802 2.6364 86.8978 2.85702 86.7701 2.36797C86.4687 2.43783 86.8588 3.12913 86.256 3.26518C86.061 3.01146 85.6249 2.78716 85.5646 2.27972L86.1354 2.26501C85.8411 1.61049 85.3979 2.29075 85.1001 2.17676L85.1355 1.89363C84.2633 1.98923 84.2527 2.70994 83.3166 2.66214L83.4159 2.87909C82.9053 3.6145 82.9833 2.47828 82.4763 3.01146L82.3167 2.27604C81.7582 2.62506 81.1635 2.90754 80.5439 3.1181C80.8984 2.58124 81.6076 2.30178 82.0295 1.98188C81.6962 1.98188 80.8913 2.03703 80.7176 2.39739C80.8523 2.32752 81.0225 2.14734 81.1573 2.25766C80.9791 2.52841 80.7377 2.74795 80.4556 2.89584C80.1735 3.04372 79.8599 3.11512 79.544 3.10339C79.6539 1.69506 77.8031 2.75406 77.3102 1.66932C76.133 2.2025 74.9665 1.47076 73.5908 1.57004C74.0872 2.67317 73.1901 1.60681 73.2823 2.72833C72.9632 2.80554 72.8426 2.78716 72.8143 2.72833L71.8356 2.06645C71.6016 1.74286 72.137 1.81641 72.1051 1.56636C71.396 1.48547 71.8073 1.09202 71.3392 0.797852C71.4385 1.19865 71.1017 1.37516 70.6975 1.22807L71.2754 1.73551C70.3004 2.34591 70.4174 0.801529 69.4352 1.40457L69.7437 1.03686C69.2367 1.25013 67.8716 1.03686 67.3858 1.96349C67.2936 1.83479 67.1731 1.52959 67.3858 1.44502C66.1732 1.33103 64.7017 2.45254 63.7515 1.91569L63.8401 1.63991C63.6167 1.7208 63.4536 2.16205 63.1664 1.88995C63.1664 1.77596 63.2551 1.61417 63.1664 1.59946C63.0494 1.69506 62.5743 2.09219 62.2729 1.93775L62.5211 1.62152C61.3333 1.28323 60.7199 2.40842 59.7342 2.61434C59.7342 1.80537 58.7875 1.55533 58.3159 1.43767V1.32368C56.9366 1.25749 55.9899 2.05909 54.7241 2.40106C53.9122 1.54062 52.0365 2.09954 50.7494 1.63991C50.948 1.77964 50.7494 2.26869 50.5118 2.37532C50.2069 2.21721 49.6999 2.9563 49.7282 2.21353H49.8346C49.5935 1.47811 48.9837 1.69874 48.505 1.69506L48.4518 2.66949C47.1647 1.30161 45.1756 3.2946 44.4558 2.05174C44.1615 2.30546 43.7857 2.31281 43.4949 2.56653V2.04439C42.7356 1.91149 41.9602 1.91149 41.2009 2.04439L41.3994 1.67668C40.8144 1.67668 40.7115 3.19899 40.1726 3.2468L39.9882 2.47828C38.9671 2.51873 37.914 1.88259 36.9318 2.62537C36.9318 2.51138 36.9673 2.2834 37.1304 2.25766C36.6517 2.25766 35.2583 1.80537 35.471 2.86438C35.432 2.16941 34.4073 2.83496 33.879 3.16222L33.9464 2.63272C33.5067 3.30563 33.4961 3.48581 32.8578 3.69172C32.7018 3.63289 32.7054 3.28724 32.9146 3.40859C32.3933 3.16222 32.5352 3.91235 31.904 3.66231L32.1239 3.32769C31.5956 3.30563 31.6452 3.48213 31.3686 3.8719C31.046 4.09253 30.3652 3.78365 30.2695 3.32401C30.2092 3.60715 29.9362 3.99692 29.6206 3.87558C29.6059 3.81329 29.6088 3.74795 29.629 3.68733C29.6491 3.6267 29.6856 3.57335 29.7341 3.53361C28.8406 3.22106 28.4505 4.18813 27.8265 3.71379C27.8245 3.60179 27.7829 3.49445 27.7095 3.41226C28.1132 3.37092 28.5201 3.37833 28.9221 3.43433C28.9221 2.95998 28.3371 2.90483 28.759 2.23192C28.3193 2.59963 27.5748 3.41594 27.0181 3.22106C26.99 3.16897 26.9686 3.11335 26.9543 3.05559L26.9933 3.00043C26.9312 2.98331 26.866 2.98312 26.8038 2.99987C26.7417 3.01662 26.6848 3.04975 26.6387 3.09603C26.495 3.02227 26.3379 2.98092 26.1777 2.97469C26.0962 2.58492 25.5218 2.79451 25.2381 2.78716C25.2842 3.30195 24.9119 3.23576 25.2771 3.6476C25.231 3.61083 25.3268 3.58141 25.5112 3.55199C25.5549 3.5415 25.596 3.52145 25.6317 3.49316L25.614 3.54096C25.7984 3.51522 26.0395 3.49316 26.3231 3.4711C26.1104 3.74688 25.887 3.97486 25.5643 3.70275C25.4332 4.04472 25.2878 4.39037 25.2098 4.55584C24.7949 3.85352 24.0361 3.49684 23.912 3.05926C23.0646 3.3902 21.8946 3.3424 21.3982 4.33889C21.157 4.47494 21.1039 4.07414 21.0046 3.92706C21.1429 3.82042 21.3095 3.82778 21.3804 3.68437C20.9053 3.95647 19.9373 3.84984 19.8522 4.53378C19.2211 4.25432 20.1678 3.89029 19.3275 4.04472L19.4338 3.83145C17.7177 2.83864 16.81 5.70309 14.8989 4.41243C15.0301 4.49333 15.0939 4.52642 15.1258 4.64041C12.9984 4.14401 10.8213 5.43834 8.69748 4.59261C8.09471 4.4345 8.05571 4.86839 7.71532 5.22139L7.55576 4.67351L6.97427 5.35009C6.13039 5.87224 5.38935 4.0815 4.33273 5.03386L4.49583 5.40157C4.09517 5.35745 3.25129 5.69942 3.29384 5.26552C3.25838 5.33538 3.18747 5.66264 3.02082 5.47511L2.99246 5.1883L2.03866 5.73619C1.26925 5.57072 2.0883 4.5779 0.974956 4.58893C0.574293 4.72499 -0.141937 5.50085 0.0247106 5.69206C0.139305 5.6995 0.247871 5.7479 0.331917 5.82903C0.415963 5.91015 0.470292 6.01899 0.485651 6.13699L0.127536 6.30981C0.109807 7.16658 -0.124209 8.06011 0.836674 8.60064L1.42526 8.03805L1.65573 8.43885L1.13097 8.51607C1.46072 8.88378 1.63446 8.51607 1.84011 8.28074C1.8851 8.45424 1.98979 8.60466 2.1344 8.7036L2.71589 7.84684C2.81163 8.17778 2.47478 8.5271 2.90381 8.68889C3.17683 8.29177 2.58116 7.95347 3.05273 7.67769C3.38248 8.0454 3.31157 8.36898 3.65196 8.01598C3.68267 8.09899 3.68537 8.19034 3.65962 8.27514C3.63386 8.35995 3.58117 8.4332 3.51013 8.48297C3.81506 8.19984 4.34691 8.31751 4.48874 7.85419C4.84331 8.31383 5.55245 7.66298 5.57372 8.47562C5.76014 8.14272 6.0484 7.8839 6.39278 7.7402C5.91056 8.74037 7.49903 7.7402 7.41394 8.77714C7.76851 7.88361 8.83221 8.3028 9.50235 7.77697C9.46689 7.85051 9.39952 7.99392 9.33216 7.95347C9.73282 8.00128 9.86047 8.25499 10.1264 8.40943C10.1264 7.67401 10.7469 7.49016 11.0554 7.02685C11.5766 7.69608 10.8036 7.88729 10.9915 8.54549C10.9384 7.9645 11.8071 7.92038 11.6156 7.44236C12.0092 7.85051 11.9453 7.63357 12.1687 8.21822C12.1864 7.31734 12.5233 8.04908 12.7857 7.48281C13.3459 7.89832 12.9665 8.31751 13.5444 8.01231C13.8352 8.28441 13.3246 8.63374 13.3246 8.63374ZM27.3088 6.37968L27.0216 6.4238L27.3088 6.37968ZM28.4754 6.30981C28.3041 6.2989 28.1324 6.2989 27.9612 6.30981C27.9151 6.13331 27.9612 5.9421 28.0711 5.9421C28.018 6.08551 28.2945 6.17744 28.4754 6.30981ZM25.8267 2.85702C26.0111 2.77245 26.0785 2.85702 26.1104 2.97837C25.9995 2.99338 25.8903 3.01924 25.7842 3.05559C25.7842 3.05559 25.7842 3.09603 25.7842 3.1181C25.7851 3.0293 25.7995 2.94121 25.8267 2.85702Z" fill="#F4BC4B"/>
</svg>
